<?xml version="1.0" encoding="utf-8"?>
<!-- Generator: Adobe Illustrator 24.1.1, SVG Export Plug-In . SVG Version: 6.00 Build 0)  -->
<svg version="1.1" id="Capa_1" xmlns="http://www.w3.org/2000/svg" xmlns:xlink="http://www.w3.org/1999/xlink" x="0px" y="0px"
	 viewBox="0 0 379 298.7" style="enable-background:new 0 0 379 298.7;" xml:space="preserve">
<style type="text/css">
	.st0{fill:#E7E7E7;}
	.st1{fill:#EF7C86;}
	.st2{fill:#FFFFFF;}
</style>
<rect x="-2.2" y="-36.2" width="402.1" height="308.6"/>
<rect x="287.1" y="164.6" class="st0" width="31.5" height="9"/>
<path class="st1" d="M173.5,187.5c15.6-17.6,28.7-39.8,41.6-61.7c14.4-24.4,28.7-44,31.7-50.6c0.6-1,10.9-18.8,1.7-36
	c-9.4-17.6-33-20.3-36-20.5c-13.8-0.6-26,12.4-29.6,14.9l-75.4,113.9c-1.1,2.6-2.5,6.4-3,11.3c-0.3,2.4-1.2,13.7,5.3,23.9
	c8.4,13.3,24.7,17.5,36.5,16.7C156.1,198.9,166.1,196,173.5,187.5z"/>
<path class="st2" d="M119.4,183.5c-15.6-17.6-28.7-39.8-41.6-61.7c-14.4-24.4-28.7-44-31.7-50.6c-0.6-1-10.9-18.8-1.7-36
	c9.4-17.6,33-20.3,36-20.5c13.8-0.6,26,12.4,29.6,14.9l75.4,113.9c1.1,2.6,2.5,6.4,3,11.3c0.3,2.4,1.2,13.7-5.3,23.9
	c-8.4,13.3-24.7,17.5-36.5,16.7C136.8,194.9,126.8,192,119.4,183.5z"/>
<circle class="st1" cx="146.3" cy="173.8" r="14.9"/>
<path class="st2" d="M291.8,183.5c15.6-17.6,28.7-39.8,41.6-61.7c14.4-24.4,28.7-44,31.7-50.6c0.6-1,10.9-18.8,1.7-36
	c-9.4-17.6-33-20.3-36-20.5c-13.8-0.6-26,12.4-29.6,14.9l-75.4,113.9c-1.1,2.6-2.5,6.4-3,11.3c-0.3,2.4-1.2,13.7,5.3,23.9
	c8.4,13.3,24.7,17.5,36.5,16.7C274.4,194.9,284.3,192,291.8,183.5z"/>
<circle class="st1" cx="245.3" cy="170.8" r="14.9"/>
<circle cx="146.6" cy="174.1" r="8.2"/>
<circle cx="245.7" cy="171.1" r="8.2"/>
<rect x="148.7" y="45.1" class="st1" width="29.6" height="7.1"/>
<rect x="156.7" y="55.7" class="st1" width="15.8" height="8"/>
<rect x="129.4" y="44.1" class="st1" width="10.6" height="10.6"/>
<rect x="324.4" y="164.6" class="st0" width="11.3" height="9"/>
<rect x="290.9" y="176.8" class="st0" width="10.6" height="9"/>
<g>
	<g>
		<path class="st2" d="M60,262.8c-2.2,0-4.2-0.2-6.1-0.5c-1.9-0.3-3.6-0.9-5.3-1.6l0.7-5.4c2,0.8,3.9,1.5,5.7,1.9
			c1.8,0.4,3.6,0.7,5.4,0.7c2.5,0,4.4-0.4,5.6-1.3c1.2-0.9,1.8-2.2,1.8-4c0-2.3-1.2-3.9-3.5-5l-6.6-3c-2.6-1.2-4.6-2.6-6-4.3
			c-1.4-1.7-2.1-3.7-2.1-6.2c0-3.3,1-5.9,3-7.7s4.8-2.7,8.5-2.7c2.6,0,4.8,0.4,6.8,1.1s3.9,2,5.7,3.7l-3.8,3.8
			c-1.6-1.3-3-2.2-4.4-2.8c-1.4-0.6-2.8-0.9-4.3-0.9c-1.8,0-3.3,0.4-4.3,1.3c-1,0.9-1.5,2.2-1.5,3.9c0,1.2,0.3,2.2,1,3
			c0.7,0.8,1.6,1.5,2.9,2.1l5.6,2.6c2.8,1.3,5,2.8,6.4,4.5s2.2,3.8,2.2,6.4c0,3.5-1.1,6-3.4,7.8C67.9,262,64.5,262.8,60,262.8z"/>
		<path class="st2" d="M81.7,262.3v-4.7h11.4v4.7H81.7z M83.3,238.5v-4.7h14.9v4.7H83.3z M95.2,229.3c-1.1,0-2-0.4-2.8-1.2
			c-0.8-0.8-1.2-1.7-1.2-2.8c0-1.1,0.4-2,1.2-2.8c0.8-0.8,1.7-1.2,2.8-1.2c1.1,0,2,0.4,2.8,1.2c0.8,0.8,1.2,1.7,1.2,2.8
			c0,1.1-0.4,2-1.2,2.8C97.3,228.9,96.3,229.3,95.2,229.3z M92.5,262.3v-26.9h5.7v26.9H92.5z M97.7,262.3v-4.7h9.3v4.7H97.7z"/>
		<path class="st2" d="M114.1,262.3v-28.5h5.2l0.5,6v22.5H114.1z M131.6,262.3v-18.5c0-1.7-0.4-3-1.3-4c-0.9-0.9-2.1-1.4-3.8-1.4
			c-4.5,0-6.7,2.6-6.7,7.9l-1.7-7.3h2.2c0.2-1.9,0.9-3.3,2.1-4.3c1.2-0.9,3-1.4,5.4-1.4c3,0,5.3,0.9,7,2.7c1.6,1.8,2.5,4.4,2.5,7.7
			v18.5H131.6z"/>
		<path class="st2" d="M153.8,262.8c-3,0-5.3-0.7-6.9-2.1c-1.6-1.4-2.4-3.5-2.4-6.1c0-3,1.1-5.3,3.4-6.9s5.4-2.4,9.5-2.4
			c1.7,0,3.2,0.1,4.6,0.3c1.3,0.2,2.5,0.5,3.6,0.9l-1.2,3.9c-1.2-0.3-2.4-0.4-3.5-0.5c-1.1,0-2.3-0.1-3.5-0.1
			c-4.9,0-7.4,1.5-7.4,4.5c0,1.3,0.4,2.2,1.3,2.9c0.9,0.7,2.1,1,3.6,1c1.8,0,3.3-0.3,4.4-0.9c1.2-0.6,2.1-1.4,2.7-2.3
			c0.6-0.9,0.9-1.9,0.9-2.9V249l1.7,7.3h-2.3l0.9-0.9c0,1.6-0.4,3-1.1,4.1c-0.8,1.1-1.8,1.9-3.2,2.5
			C157.3,262.6,155.7,262.8,153.8,262.8z M163.8,262.6l-0.4-8.4l-0.8-2.4v-7.4c0-1.9-0.7-3.3-2-4.2c-1.3-0.9-3.3-1.4-5.9-1.4
			l-6.8-0.2l0.5-5l5.7,0.1c4.7,0.1,8.2,1.1,10.5,3c2.3,2,3.4,4.8,3.4,8.6v11.9l4.8,0.6v4.6L163.8,262.6z M154.7,228.8l4.6-10.2h5.7
			l-5.1,10.2H154.7z"/>
		<path class="st2" d="M178.6,274.7v-40.8h5.2l0.5,6v34.8H178.6z M192.4,262.8c-2.2,0-3.9-0.5-5.3-1.5c-1.3-1-2.1-2.4-2.3-4.2h-2.5
			l1.9-8.1c0,2.9,0.6,5.2,1.7,6.7c1.2,1.5,2.9,2.3,5.1,2.3c2.3,0,4-0.8,5.2-2.4c1.2-1.6,1.8-4,1.8-7.2c0-3.4-0.6-5.9-1.8-7.6
			s-2.9-2.6-5.2-2.6c-2.2,0-3.9,0.8-5.1,2.3c-1.2,1.5-1.7,3.8-1.7,6.7l-1.9-8.1h2.2c0.3-1.8,1.1-3.2,2.4-4.2c1.4-1,3.2-1.5,5.4-1.5
			c3.7,0,6.6,1.3,8.5,3.8c1.9,2.5,2.9,6.3,2.9,11.2c0,4.8-1,8.4-2.9,10.8C198.9,261.6,196.1,262.8,192.4,262.8z"/>
		<path class="st2" d="M208.2,238.5v-4.7H234v4.7H208.2z M215.3,248.9v-23.6h5.7v23.6H215.3z M227.6,262.8c-4.3,0-7.4-0.9-9.4-2.7
			c-1.9-1.8-2.9-4.7-2.9-8.6v-4.8h5.7v4.6c0,2.3,0.6,3.9,1.7,4.9c1.1,1,2.9,1.5,5.4,1.5c0.9,0,1.8,0,2.8-0.1c1-0.1,2.1-0.2,3.4-0.4
			l0.6,5c-1.3,0.2-2.5,0.4-3.7,0.5S228.9,262.8,227.6,262.8z"/>
		<path class="st2" d="M242.8,262.3v-4.7h11.4v4.7H242.8z M244.4,238.5v-4.7h14.9v4.7H244.4z M256.3,229.3c-1.1,0-2-0.4-2.8-1.2
			c-0.8-0.8-1.2-1.7-1.2-2.8c0-1.1,0.4-2,1.2-2.8c0.8-0.8,1.7-1.2,2.8-1.2c1.1,0,2.1,0.4,2.8,1.2c0.8,0.8,1.2,1.7,1.2,2.8
			c0,1.1-0.4,2-1.2,2.8C258.4,228.9,257.4,229.3,256.3,229.3z M253.7,262.3v-26.9h5.7v26.9H253.7z M258.8,262.3v-4.7h9.3v4.7H258.8z
			"/>
		<path class="st2" d="M289.6,262.8c-4.9,0-8.6-1.3-11.2-3.8c-2.6-2.6-4-6.2-4-11c0-4.7,1.2-8.3,3.7-10.8c2.5-2.6,6.1-3.9,10.7-3.9
			c2.8,0,5.2,0.5,7.1,1.5c2,1,3.4,2.5,4.2,4.4l-4.4,3.3c-0.8-1.3-1.8-2.3-3.1-3c-1.3-0.7-2.6-1.1-4.1-1.1c-2.7,0-4.8,0.8-6.3,2.4
			c-1.5,1.6-2.2,3.9-2.2,6.9c0,3.2,0.9,5.7,2.6,7.4c1.7,1.7,4.2,2.6,7.5,2.6c1.3,0,2.6-0.1,4-0.2c1.3-0.1,2.6-0.3,3.9-0.5l0.6,5
			c-1.5,0.3-3,0.5-4.6,0.6C292.6,262.8,291.1,262.8,289.6,262.8z"/>
		<path class="st2" d="M314.9,262.8c-3,0-5.3-0.7-6.9-2.1c-1.6-1.4-2.4-3.5-2.4-6.1c0-3,1.1-5.3,3.4-6.9s5.4-2.4,9.5-2.4
			c1.7,0,3.2,0.1,4.6,0.3c1.3,0.2,2.5,0.5,3.6,0.9l-1.2,3.9c-1.2-0.3-2.4-0.4-3.5-0.5c-1.1,0-2.3-0.1-3.5-0.1
			c-4.9,0-7.4,1.5-7.4,4.5c0,1.3,0.4,2.2,1.3,2.9c0.9,0.7,2.1,1,3.6,1c1.8,0,3.3-0.3,4.4-0.9c1.2-0.6,2.1-1.4,2.7-2.3
			c0.6-0.9,0.9-1.9,0.9-2.9V249l1.7,7.3h-2.3l0.9-0.9c0,1.6-0.4,3-1.1,4.1c-0.8,1.1-1.8,1.9-3.2,2.5
			C318.4,262.6,316.8,262.8,314.9,262.8z M325,262.6l-0.4-8.4l-0.8-2.4v-7.4c0-1.9-0.7-3.3-2-4.2c-1.3-0.9-3.3-1.4-5.9-1.4l-6.8-0.2
			l0.5-5l5.7,0.1c4.7,0.1,8.2,1.1,10.5,3c2.3,2,3.4,4.8,3.4,8.6v11.9l4.8,0.6v4.6L325,262.6z"/>
	</g>
</g>
</svg>
