<?xml version="1.0" encoding="utf-8"?>
<!-- Generator: Adobe Illustrator 24.1.1, SVG Export Plug-In . SVG Version: 6.00 Build 0)  -->
<svg version="1.1" id="Capa_1" xmlns="http://www.w3.org/2000/svg" xmlns:xlink="http://www.w3.org/1999/xlink" x="0px" y="0px"
	 viewBox="0 0 197.4 194.8" style="enable-background:new 0 0 197.4 194.8;" xml:space="preserve">
<style type="text/css">
	.st0{fill:url(#SVGID_1_);}
	.st1{fill:#2D5750;}
	.st2{fill:url(#SVGID_2_);}
	.st3{fill:url(#SVGID_3_);}
	.st4{fill:url(#SVGID_4_);}
	.st5{fill:url(#SVGID_5_);}
	.st6{fill:url(#SVGID_6_);}
	.st7{fill:url(#SVGID_7_);}
	.st8{fill:url(#SVGID_8_);}
	.st9{fill:url(#SVGID_9_);}
	.st10{fill:url(#SVGID_10_);}
	.st11{fill:url(#SVGID_11_);}
	.st12{fill:url(#SVGID_12_);}
	.st13{fill:url(#SVGID_13_);}
	.st14{fill:url(#SVGID_14_);}
	.st15{fill:url(#SVGID_15_);}
	.st16{fill:url(#SVGID_16_);}
	.st17{fill:url(#SVGID_17_);}
	.st18{fill:url(#SVGID_18_);}
	.st19{fill:url(#SVGID_19_);}
	.st20{fill:url(#SVGID_20_);}
	.st21{fill:url(#SVGID_21_);}
	.st22{fill:url(#SVGID_22_);}
	.st23{fill:url(#SVGID_23_);}
	.st24{fill:url(#SVGID_24_);}
	.st25{fill:url(#SVGID_25_);}
	.st26{fill:url(#SVGID_26_);}
	.st27{fill:url(#SVGID_27_);}
	.st28{fill:url(#SVGID_28_);}
	.st29{fill:url(#SVGID_29_);}
	.st30{fill:url(#SVGID_30_);}
	.st31{fill:none;stroke:#F29CB8;stroke-width:5;stroke-miterlimit:10; transform-origin:50% 50%;
    animation: spin 30s infinite linear;}
    
    @keyframes spin{
    from{transform:rotate(0deg);}
    to{transform:rotate(360deg);}
    }
    
	.st32{stroke:#FFFFFF;stroke-miterlimit:10;}
	.st33{font-family:'Impact';}
	.st34{font-size:25px;}
</style>
<symbol  id="Rosa" viewBox="-56.2 -49.8 112.4 99.6">
	<linearGradient id="SVGID_1_" gradientUnits="userSpaceOnUse" x1="-8.3444" y1="-18.7489" x2="3.2456" y2="-42.6289">
		<stop  offset="1.000000e-02" style="stop-color:#2D5750"/>
		<stop  offset="0.44" style="stop-color:#65918A"/>
		<stop  offset="1" style="stop-color:#C0CCC9"/>
	</linearGradient>
	<path class="st0" d="M-2.1-14.6c0,0-6.3-4.5-7.8-7.5s-1.2-9.4-1.6-11.3c-0.3-1.9-2.1-8.3-3.3-9.4c0,0,1.7,1.6,4.2,3.6
		c2.4,2.1,5.7,0,11.5,3.8S9.5-19,7.4-13.9S0.6-12.4-2.1-14.6z"/>
	<path class="st1" d="M3.6-15.8c0,0-1.5-2.1-2.3-3.2s-5.6-10.7-7.6-11.9c1.6,2.4,3,4.9,4.2,7.4c0,0-5.7-1.5-7.1-1.3
		c0,0,5.8,1.1,7.2,2c0,0,1.3,1.9,1.7,2.4s-4.6,0.5-6,0.9c0,0,5.1-0.5,5.8-0.1c0.7,0.4,1.2,1,1.7,1.7C1.7-17.1,3-15.4,3-15.4
		L3.6-15.8z"/>
	<path class="st1" d="M4-19c-0.6-0.8-1-1.7-0.9-2.7c0.3-1.3-1.3-2.2-2.3-3.7s-1.3-3.2-2.3-3.7c1.2,1.7,2.5,3.3,3.8,4.8
		c1.2,1,1.3-0.5,0.6-2.4s1.2,1.3,1.3,4.1s1.4,1.5,1.9,0.1s0.9,2.3-0.1,4.4S5-18.1,4-19z"/>
	<linearGradient id="SVGID_2_" gradientUnits="userSpaceOnUse" x1="-3.0764" y1="-27.5403" x2="-14.3164" y2="-35.0903">
		<stop  offset="1.000000e-02" style="stop-color:#2D5750"/>
		<stop  offset="0.44" style="stop-color:#65918A"/>
		<stop  offset="1" style="stop-color:#C0CCC9"/>
	</linearGradient>
	<path class="st2" d="M5.1-17.1c-1.6-1.3-2.9-2.9-3.7-4.8c-1.2-3-5.3-9.5-7.3-11.3c-2-1.8-6.5-6-7-7c0.3,0.7,0.6,1.3,1.1,1.8
		c1,1.3,3.7,3.6,4.8,5.2c1.1,1.6,4.3,5.1,5.2,6.9C0-23,2-19.7,4.3-16.5L5.1-17.1z"/>
	<linearGradient id="SVGID_3_" gradientUnits="userSpaceOnUse" x1="-24.5443" y1="9.1066" x2="-46.5843" y2="-5.7134">
		<stop  offset="1.000000e-02" style="stop-color:#2D5750"/>
		<stop  offset="0.44" style="stop-color:#65918A"/>
		<stop  offset="1" style="stop-color:#C0CCC9"/>
	</linearGradient>
	<path class="st3" d="M-0.1,16.2c0,0-2.7-3.7-6-4.4s-4.5-1.1-6.5-0.1s-4,4-5.5,4s-4.3-3.2-6.7-4.6s-4.1-2.9-6.4-1.7
		c-1.9,0.9-4.1,0.9-5.9,0c-1.2-0.6-1.4,0-3.2,0.4c-1.8,0.4-5.8-0.9-7.9-3.2s-5.4-4.4-8.1-4.3c0,0,1.7,0.4,5.8-0.6s13.2-3.7,16.7-5.3
		s7.3-2.6,12.1,0.6s14.1,8,15.2,10.7s3.1,3.5,4.5,5.3c0.8,1,1.7,1.8,2.7,2.6L-0.1,16.2z"/>
	<path class="st1" d="M-17.6,2c0,0-7.2-1.8-9.5-1.8c-2-0.1-3.9-0.5-5.8-1c0,0,0.3,0,3-0.1s2.7-1.7,1.5-2.2s-0.4-1.8,3,1.8
		s2.6,0.4,2.4-0.3S-22-1.4-20.7,0C-19.9,0.9-18.8,1.6-17.6,2z"/>
	<path class="st1" d="M-17.2,6.4c0,0-4.5-3.1-6-3.3s-7.7-1.4-8.8-1.2c-1.2,0.3-4.7,0.3-6.3,0.6c0,0,3,0.1,4.2,0.1s3.5-0.6,4.4-0.3
		S-29,3-30.9,3.8s-5.5,3.5-5.8,4.5c0,0,2.1-2.7,4.1-3.2c1.6-0.4,3.1-1.1,4.5-1.9c0,0,3.5-0.3,4.8,0.4s-0.1,1.7-1.9,2.6
		c-1,0.5-1.9,1.1-2.7,1.8c0.7-0.4,1.3-0.7,2-0.9c1.5-0.7,2.9-1.5,4.2-2.4c0.4-0.3,3.7,2.2,4.4,3.7L-17.2,6.4z"/>
	<linearGradient id="SVGID_4_" gradientUnits="userSpaceOnUse" x1="-31.3042" y1="5.0664" x2="-43.2442" y2="-2.9636">
		<stop  offset="1.000000e-02" style="stop-color:#2D5750"/>
		<stop  offset="0.44" style="stop-color:#65918A"/>
		<stop  offset="1" style="stop-color:#C0CCC9"/>
	</linearGradient>
	<path class="st4" d="M-49.4,2.8c1.1,0.7,2.5,0.9,3.7,0.6C-43.1,3-38,1.1-35,1.1c3,0,13.7,1.1,15.7,3.3c0.8,1,1.8,1.9,2.9,2.7
		l0.4-0.7c0,0-2.5-2.4-3.6-3.3S-33-0.1-35.2,0.2S-46.1,3.6-49.4,2.8z"/>
	<linearGradient id="SVGID_5_" gradientUnits="userSpaceOnUse" x1="28.5427" y1="-40.8708" x2="45.8034" y2="-40.8708">
		<stop  offset="1.000000e-02" style="stop-color:#F4A794"/>
		<stop  offset="0.44" style="stop-color:#FCD5A9"/>
		<stop  offset="1" style="stop-color:#F9EFE7"/>
	</linearGradient>
	<path class="st5" d="M29.4-39c0.9-1.8,2.1-3.4,3.4-4.8c1.7-1.5,5.1-2.6,8.7-4.2s3.6-1.8,3.6-1.8s0.8,0.3,0.6,0.9
		c-0.1,0.6,0,1.1,0.2,1.7c-1,0.4-1.9,1.2-2.5,2.2c-1.1,1.7-2.2,5.9-4.2,8.5s-6.2,5.4-8.3,4.3c-2.2-1.4-2.9-4.3-1.6-6.5
		C29.3-38.8,29.4-38.9,29.4-39z"/>
	<linearGradient id="SVGID_6_" gradientUnits="userSpaceOnUse" x1="27.2456" y1="-23.5389" x2="41.2956" y2="-52.5189">
		<stop  offset="1.000000e-02" style="stop-color:#2D5750"/>
		<stop  offset="0.44" style="stop-color:#65918A"/>
		<stop  offset="1" style="stop-color:#C0CCC9"/>
	</linearGradient>
	<path class="st6" d="M25.8-23.3c1.8-4.7,1.8-4.7,1.9-6.1c0.2-1.7-0.4-1.8-0.6-3.6s-0.4-4.6,0.9-6.4s3.2-3.1,3.7-4.6
		c0,0-0.6,1.9-1,3.3c0,0,3.6-1.4,4.8-1.3c1.3-0.1,2.4-0.8,3-1.9c-0.7,0.7-1.2,1.7-1.3,2.7c0.1,1.4-0.7,3.3-2.8,6.5
		c0,0-1.2,1.3-0.3,0.8s3.3-0.4,4-2.1c0.7-1.7,2.5-3.7,3.7-3.7c0,0-1,1.4-1.8,3s-3.3,7.4-6.9,6.3c0,0-2.2,2-3.1,1.8
		c-0.9,2.4-2,4.8-3.3,7"/>
	<linearGradient id="SVGID_7_" gradientUnits="userSpaceOnUse" x1="17.6189" y1="36.264" x2="24.6189" y2="41.224">
		<stop  offset="1.000000e-02" style="stop-color:#2D5750"/>
		<stop  offset="0.44" style="stop-color:#65918A"/>
		<stop  offset="1" style="stop-color:#C0CCC9"/>
	</linearGradient>
	<path class="st7" d="M11.8,36.2c0,0,1.4,5.8,4,6.1s5.2,0.2,6-1.7s1.2-6.1,1.4-7.8S11.2,29.8,11.8,36.2z"/>
	<linearGradient id="SVGID_8_" gradientUnits="userSpaceOnUse" x1="24.8234" y1="34.2822" x2="42.3234" y2="34.2822">
		<stop  offset="1.000000e-02" style="stop-color:#2D5750"/>
		<stop  offset="0.44" style="stop-color:#65918A"/>
		<stop  offset="1" style="stop-color:#C0CCC9"/>
	</linearGradient>
	<path class="st8" d="M19,34.7c0,0,0.3,2.4,3.4,2.2s5.1-2.8,7.5-1.5s12.1,1.9,14.3,0.9c-1.4,0.1-2.7-0.2-4-0.8c-2-0.9-4.3-2.3-6-2.3
		s-4.4-0.2-5.8-0.9S18.7,31,19,34.7z"/>
	<linearGradient id="SVGID_9_" gradientUnits="userSpaceOnUse" x1="16.4814" y1="34.1175" x2="1.1114" y2="49.9475">
		<stop  offset="1.000000e-02" style="stop-color:#2D5750"/>
		<stop  offset="0.44" style="stop-color:#65918A"/>
		<stop  offset="1" style="stop-color:#C0CCC9"/>
	</linearGradient>
	<path class="st9" d="M11.2,33.8c0,0-3.1,1.8-3.4,3.4c-0.3,1.6-0.3,5.2-2,6.6s-4,6-4,6s0-0.5,1.5-1.5s3.8-0.3,6.1-2.5
		s10.7-6,8.9-10.7S13.2,32.7,11.2,33.8z"/>
	<path class="st1" d="M15.2,35.3c-0.8,0.4-1.6,1-2.3,1.6c-0.7,0.7-1,3.3-1.9,4.1c-1.3,1.2-2.6,2.5-3.8,3.8c-0.4,0.7-2.3,1.4-2.8,2
		s0.1-0.3,0.1-0.3c0.6-0.5,1.2-1.1,1.7-1.7c0.4-0.7,3.3-2.8,4-4.3s2.4-5.3,4.3-5.8S15.7,34.1,15.2,35.3z"/>
	<linearGradient id="SVGID_10_" gradientUnits="userSpaceOnUse" x1="6.3634" y1="34.2402" x2="-20.6366" y2="37.3202">
		<stop  offset="1.000000e-02" style="stop-color:#2D5750"/>
		<stop  offset="0.44" style="stop-color:#65918A"/>
		<stop  offset="1" style="stop-color:#C0CCC9"/>
	</linearGradient>
	<path class="st10" d="M8.1,33.6c0,0-5.4-1.8-6.9-0.8s-12.1,4.8-16.4,3.7c0,0,6.4,1.4,8.9,0.6s5.4-2,7.8-1.4S12,37.3,8.1,33.6z"/>
	<linearGradient id="SVGID_11_" gradientUnits="userSpaceOnUse" x1="-9.6801" y1="-0.3899" x2="-10.0801" y2="-19.3599">
		<stop  offset="1.000000e-02" style="stop-color:#F4A794"/>
		<stop  offset="0.44" style="stop-color:#FCD5A9"/>
		<stop  offset="1" style="stop-color:#F9EFE7"/>
	</linearGradient>
	<path class="st11" d="M-18.4-5.7c0,0-1.4-6.8-2.4-8.3s0-4,1.2-3.2s8.2,2.4,10.1,1.4s8.8-1.5,10.2-0.4S0-8.9,0-8.9l-11,6L-18.4-5.7z
		"/>
	<linearGradient id="SVGID_12_" gradientUnits="userSpaceOnUse" x1="26.5889" y1="30.111" x2="16.8589" y2="-15.279">
		<stop  offset="1.000000e-02" style="stop-color:#E5917F"/>
		<stop  offset="0.44" style="stop-color:#FCD5A9"/>
		<stop  offset="1" style="stop-color:#F9EFE7"/>
	</linearGradient>
	<path class="st12" d="M19.8,35.8c-2.6-0.8-5.3-0.9-8-0.5c-4.9,0.6-13.2-2.1-17.6-7.4S-17.9-5.3-17.9-5.3L39.3-10
		c0,0,8.1-2.6,9.3-3.5s1.5-0.7,1.9,0.4s1.6,0.2,1.9,1S52-8.3,53.8-7.2s2.8,1,1.6,3.8s-1.6,19-1.4,21.2S51.4,20,48.5,21
		c-2.8,1-5.4,2.3-7.9,3.9c-1.7,0.8-3.6,1.2-5.5,1.3C34.5,26,32.3,34,19.8,35.8z"/>
	<linearGradient id="SVGID_13_" gradientUnits="userSpaceOnUse" x1="31.6603" y1="14.1869" x2="50.2503" y2="-4.2631">
		<stop  offset="1.000000e-02" style="stop-color:#E5917F"/>
		<stop  offset="0.44" style="stop-color:#FCD5A9"/>
		<stop  offset="1" style="stop-color:#F9EFE7"/>
	</linearGradient>
	<path class="st13" d="M50.3,4.4c-0.7-0.3-1.2-0.9-1.4-1.6c-0.6-1.3-0.5-2.7-1.6-3.3s-3.6-2.3-4.8-2s-4.2,1-4.9,2.1
		s-12,15.3-12,15.3s-0.7,2,1.7,1.6S47.9,7.9,50.3,4.4z"/>
	<linearGradient id="SVGID_14_" gradientUnits="userSpaceOnUse" x1="1.8301" y1="5.6142" x2="-15.9599" y2="-13.2358">
		<stop  offset="1.000000e-02" style="stop-color:#E5917F"/>
		<stop  offset="0.44" style="stop-color:#FCD5A9"/>
		<stop  offset="1" style="stop-color:#F9EFE7"/>
	</linearGradient>
	<path class="st14" d="M-4.8-8.3c0,0-5.3,1.5-6.5,1.7S-19-6-18.9-5.4s1.3,4,1.3,4s8,9.3,9.3,10s12.5,7.6,12.5,7.6L11.4,7
		C11.4,7,8.2-9.3-4.8-8.3z"/>
	<linearGradient id="SVGID_15_" gradientUnits="userSpaceOnUse" x1="17.0014" y1="-8.21" x2="16.6014" y2="-27.29">
		<stop  offset="1.000000e-02" style="stop-color:#F4A794"/>
		<stop  offset="0.44" style="stop-color:#FCD5A9"/>
		<stop  offset="1" style="stop-color:#F9EFE7"/>
	</linearGradient>
	<path class="st15" d="M0.2-13.2c0,0,5.2-4.7,6.2-6.3s5.8-6.8,7.2-5.8s3.9,1.5,4.4,1.2s1.2-1,1.5-0.7s1.6,1,2.1,0.3
		s11.4,3.3,11.9,9.2s-12.7,4.3-12.7,4.3L0.2-13.2z"/>
	<linearGradient id="SVGID_16_" gradientUnits="userSpaceOnUse" x1="14.6436" y1="17.8324" x2="18.8036" y2="-7.618103e-03">
		<stop  offset="1.000000e-02" style="stop-color:#E5917F"/>
		<stop  offset="0.44" style="stop-color:#FCD5A9"/>
		<stop  offset="1" style="stop-color:#F9EFE7"/>
	</linearGradient>
	<path class="st16" d="M27.3,15.7l0.2-0.2c0.8-0.8,4.5-4.6,5.4-5.4s2.5-2.9,1.9-2.5c-2.3,0.7-4.7,1.2-7.1,1.7
		c-1.3,0.3-23.9,1.6-23.9,1.6s-5.5-0.8-5.6,0.6s15.7,8.1,15.7,8.1l7.5-0.9"/>
	<linearGradient id="SVGID_17_" gradientUnits="userSpaceOnUse" x1="35.6573" y1="18.3892" x2="33.1673" y2="6.7692">
		<stop  offset="1.000000e-02" style="stop-color:#F4A794"/>
		<stop  offset="0.44" style="stop-color:#FCD5A9"/>
		<stop  offset="1" style="stop-color:#F9EFE7"/>
	</linearGradient>
	<path class="st17" d="M14.3,22.3c0,0-0.5-0.5,1.4-2.2s4.6-3.9,6.8-4s4.2-1.2,6.6-2.4S45.7,5,47.6,4.4s2.8-0.3,4.5,1s5.3,3.5,3.7,4
		s-8.9,3.5-11.3,4.1c-2.8,0.8-5.6,1.7-8.3,2.7c-3,1.2-9.7,4.7-11.7,5.3s-10,3.3-10.4,1.1"/>
	<linearGradient id="SVGID_18_" gradientUnits="userSpaceOnUse" x1="-6.8061" y1="14.5266" x2="-21.8661" y2="9.1466">
		<stop  offset="1.000000e-02" style="stop-color:#F4A794"/>
		<stop  offset="0.44" style="stop-color:#FCD5A9"/>
		<stop  offset="1" style="stop-color:#F9EFE7"/>
	</linearGradient>
	<path class="st18" d="M-1.3,23.4l-10.7,0.2c-0.3-0.5-0.7-0.9-1.2-1.3c-0.6-0.5-3-2-3.6-2.5s0-1-1-1s-3.2,0.1-3.1-1.2
		c0.2-2.8,3-4.4,3-7.4c0-3.9-0.7-10.8,0-10.6S-4.5,13.8-4.5,13.8S0.3,21.5-1.3,23.4z"/>
	<linearGradient id="SVGID_19_" gradientUnits="userSpaceOnUse" x1="-4.0523" y1="24.1091" x2="-0.8423" y2="4.6091">
		<stop  offset="1.000000e-02" style="stop-color:#F4A794"/>
		<stop  offset="0.44" style="stop-color:#FCD5A9"/>
		<stop  offset="1" style="stop-color:#F9EFE7"/>
	</linearGradient>
	<path class="st19" d="M-2.6,24c0,0-3.3-4.1-4-6.2s-2-5.7-3.3-6.8c-2.6-2.9-5-5.9-7.3-9c-0.7-1.2-1.8-2-3.1-2.5
		c-1.1-0.3-1.4-4.4-0.4-5C-19.5-6.1-18-6-17-5.2c1,0.8-0.2,0.2,0.5,2.7s1.5,4.1,4.7,6.2s7.9,4.5,9.1,5.5c1.9,1.5,4.1,2.6,6.5,3.3
		c4.8,1.8,9.5,4.1,14,6.6c1.4,1.1-0.5,5-0.5,5L-2.6,24z"/>
	<linearGradient id="SVGID_20_" gradientUnits="userSpaceOnUse" x1="24.4269" y1="-1.6764" x2="40.7369" y2="-17.8664">
		<stop  offset="1.000000e-02" style="stop-color:#F4A794"/>
		<stop  offset="0.44" style="stop-color:#FCD5A9"/>
		<stop  offset="1" style="stop-color:#F9EFE7"/>
	</linearGradient>
	<path class="st20" d="M26.4,7.5L31.6,9c0,0,3.8-3,5.2-5.6c1.6-3.3,2.5-6.8,2.7-10.4c0.1-3.3-0.1-4.8-1-6c-0.9-0.9-1.5-2-2-3.2
		c-0.1-0.6-5.1-1-7.9-0.5s-8.5,3.3-10.4,3.5s-0.9,3.7-0.9,3.7L26.4,7.5z"/>
	<linearGradient id="SVGID_21_" gradientUnits="userSpaceOnUse" x1="20.8704" y1="2.237" x2="34.0804" y2="-11.193">
		<stop  offset="1.000000e-02" style="stop-color:#E5917F"/>
		<stop  offset="0.44" style="stop-color:#FCD5A9"/>
		<stop  offset="1" style="stop-color:#F9EFE7"/>
	</linearGradient>
	<path class="st21" d="M28.5,7.1c0,0,0.7-0.3,1.3-3.7c0.4-3,1.1-6,2-8.9c0.5-1.2-3-3.9-7.7-3.2s-5.2,0.2-5.2,0.2V4.7
		C18.9,4.7,24.4,7.5,28.5,7.1z"/>
	<linearGradient id="SVGID_22_" gradientUnits="userSpaceOnUse" x1="7.5759" y1="0.9075" x2="-6.8641" y2="-13.5325">
		<stop  offset="1.000000e-02" style="stop-color:#F4A794"/>
		<stop  offset="0.44" style="stop-color:#FCD5A9"/>
		<stop  offset="1" style="stop-color:#F9EFE7"/>
	</linearGradient>
	<path class="st22" d="M0.4,9.7C0,8.7-0.6,7.9-1.4,7.2c-1.3-1.3-3.4-2.1-3.5-3.7c0-1.4-0.2-2.9-0.7-4.2c-0.6-1.2-1-4.7-1-6.8
		s0.5-2.8,0.5-4s-0.5-2.4,1.2-2.7c2.5-0.4,5.1-0.7,7.7-0.8c2.6-0.1,5.4,0.6,6.2,1.5s2,15.4,2,15.4L0.4,9.7z"/>
	<linearGradient id="SVGID_23_" gradientUnits="userSpaceOnUse" x1="14.4959" y1="-6.7703" x2="13.5759" y2="-15.5403">
		<stop  offset="1.000000e-02" style="stop-color:#F4A794"/>
		<stop  offset="0.44" style="stop-color:#FCD5A9"/>
		<stop  offset="1" style="stop-color:#F9EFE7"/>
	</linearGradient>
	<path class="st23" d="M7.5,2.5C7.8,0.7,8-1.1,8-2.9C7.9-5,7-6.7,6.9-8.4s-1.6-5.4,1-6.5s5.2-2,8.5,0.1s5.8,5,5.8,5.9
		S21.4,4.4,21.7,5.5C21.7,5.5,11.4,7.7,7.5,2.5z"/>
	<linearGradient id="SVGID_24_" gradientUnits="userSpaceOnUse" x1="16.0114" y1="-2.3733" x2="22.1114" y2="-8.7733">
		<stop  offset="1.000000e-02" style="stop-color:#B87B75"/>
		<stop  offset="0.44" style="stop-color:#FBCB97"/>
		<stop  offset="1" style="stop-color:#F3DDCD"/>
	</linearGradient>
	<path class="st24" d="M22.3-8.9c0,0-1.1-1.1-3.1,0s-6.9,3.3-6.4,7.5s8.5-1.4,8.5-1.4l1.2-4.5C22.5-7.3,22.4-8.2,22.3-8.9z"/>
	<linearGradient id="SVGID_25_" gradientUnits="userSpaceOnUse" x1="13.8727" y1="-1.3699" x2="12.0428" y2="-9.9099">
		<stop  offset="1.000000e-02" style="stop-color:#F4A794"/>
		<stop  offset="0.44" style="stop-color:#FCD5A9"/>
		<stop  offset="1" style="stop-color:#F9EFE7"/>
	</linearGradient>
	<path class="st25" d="M10-1.2c0,0-0.5-5.1-0.4-6.6s0-1.4,0.8-0.5c0.9,0.7,2.1,0.9,3.1,0.4c0.7-0.4,2.9-0.1,3.1,1s-0.5,5.7-0.5,5.7
		S12.1,0.6,10-1.2z"/>
	<linearGradient id="SVGID_26_" gradientUnits="userSpaceOnUse" x1="5.591" y1="-5.7182" x2="14.0434" y2="-5.7182">
		<stop  offset="1.000000e-02" style="stop-color:#F4A794"/>
		<stop  offset="0.44" style="stop-color:#FCD5A9"/>
		<stop  offset="1" style="stop-color:#F9EFE7"/>
	</linearGradient>
	<path class="st26" d="M14-2c-0.4-0.6-0.9-1.2-1.5-1.6c-2.8-1.8-5-4.4-6.2-7.6c-1.7-4.7-0.1-0.2-0.1-0.2c-0.1,0.8-0.1,1.5,0.2,2.2
		c0.7,1.8,1,3.7,1,5.6c-0.1,2-1,3.1-0.3,4.8S12.9,0.9,14-2z"/>
	<linearGradient id="SVGID_27_" gradientUnits="userSpaceOnUse" x1="16.6624" y1="4.2602" x2="14.0724" y2="-7.8298">
		<stop  offset="1.000000e-02" style="stop-color:#F4A794"/>
		<stop  offset="0.44" style="stop-color:#FCD5A9"/>
		<stop  offset="1" style="stop-color:#F9EFE7"/>
	</linearGradient>
	<path class="st27" d="M7.7,0.6c0.6-1.1,1.6-2,2.8-2.4c2-0.8,6.1-1,7.7-2.6s4-2.3,4.2-4.5c0.6,1.3,0.8,2.8,0.4,4.2
		c-0.6,2.3-1.1,7-0.6,9C22,4.3,5.7,5.8,7.7,0.6z"/>
	<linearGradient id="SVGID_28_" gradientUnits="userSpaceOnUse" x1="13.7004" y1="12.0092" x2="13.3504" y2="-4.8108">
		<stop  offset="1.000000e-02" style="stop-color:#F4A794"/>
		<stop  offset="0.44" style="stop-color:#FCD5A9"/>
		<stop  offset="1" style="stop-color:#F9EFE7"/>
	</linearGradient>
	<path class="st28" d="M3.9,9.7C3.3,9.6,0.2,4.1-1,1.9s-0.8-2.7-1.2-4.1s0.7-0.1,2.3-0.3s3.5,1.4,4.5,1.9c1.4,0.7,3,1.3,4.5,1.7
		c1.9,0.4,3.9,0.8,5.9,1c2,0.2,9.5,2.5,11.4,3.1s2.8,1,2.8,1.9c-0.1,0.5-0.1,1,0,1.5C29.2,8.4,11.2,10.5,3.9,9.7z"/>
	<linearGradient id="SVGID_29_" gradientUnits="userSpaceOnUse" x1="18.9126" y1="19.5226" x2="20.9126" y2="5.8626">
		<stop  offset="1.000000e-02" style="stop-color:#F4A794"/>
		<stop  offset="0.44" style="stop-color:#FCD5A9"/>
		<stop  offset="1" style="stop-color:#F9EFE7"/>
	</linearGradient>
	<path class="st29" d="M4.1,11.7c1.3,0.2,2.7,0.4,4,0.4c3.2,0.2,4.3-0.3,7.6-0.5s9-1.3,10-0.8s1.7,0,2.8-0.5s4.1-0.3,6.2-0.7
		s7.5-2.1,8-3.6s-1.6-2-2.3-1.6s-6.3,1.9-8,2.6c-2.2,1-4.6,1.6-7,1.6C22.7,8.4,10.1,9,7,9s-9-1-8.4,0.4S1.4,11.7,4.1,11.7z"/>
	<linearGradient id="SVGID_30_" gradientUnits="userSpaceOnUse" x1="16.0733" y1="29.9721" x2="13.1533" y2="16.3321">
		<stop  offset="1.000000e-02" style="stop-color:#F4A794"/>
		<stop  offset="0.44" style="stop-color:#FCD5A9"/>
		<stop  offset="1" style="stop-color:#F9EFE7"/>
	</linearGradient>
	<path class="st30" d="M36.7,26.9c2.3-0.9,4.1-2.6,5.2-4.9c0.5-1.3,2-3,2.1-4.2s-5.8-0.1-8.4,0.1s-6.9,2.1-8.3,2.6s-7.6,1-7.6,1
		S-6,23-9,23.2s-5.2-0.5-5.8,0s-1,3.7,0.3,3.8s10,1,13.5,1.4s9.1,0.1,9.7-0.3c2-1.2,4.4-1.7,6.8-1.6c3.4,0.2,7.7,0.3,9,1.1
		s7.6-1.7,10.9-0.7"/>
	<path class="st1" d="M30.1-40c0,0-3.8,4.2-1.8,9.1c0,0,0.4,0.1,0.3-0.9C28.5-32.9,28.1-35.6,30.1-40z"/>
	<path class="st1" d="M29.4-30.8c0,0,3,0,3.6-1.2c0,0,2.7,0.8,3.7-0.9c0,0-1.8,1.8-3.2,1.7C33.5-31.2,30-28.9,29.4-30.8z"/>
	<path class="st1" d="M36-40.9c0,0-6,3.5-6.9,9.1C29.1-31.8,32.8-38.5,36-40.9z"/>
</symbol>
<ellipse class="st31" cx="95.1" cy="98.5" rx="68.7" ry="63.7"/>
<path class="st31" d="M65.4,41.1c5.9-1.4,12.8-5.6,18.4-11.8c8.8-9.6,6.7-23.7,8.8-23.5c1.9,0.2,0.9,13.2,7.5,21.4
	c6.2,7.7,15.4,11.3,22.4,13"/>
<path class="st31" d="M65.3,155.8c6.1,1.9,15.9,5.3,21.5,10.4c8.8,8,9.1,19,11.1,18.9c1.9-0.2-0.5-9.7,5.1-17.1
	c5.3-6.8,16.6-11.2,23.9-13.1"/>
<path class="st31" d="M154.7,66.7c2.6,4.9,8.3,11.7,14.6,17.2c9.8,8.6,23.1,8.6,23,10.6c-0.2,1.9-11.8-0.3-20.5,5.6
	c-8,5.4-13.9,19.4-15.9,26.8"/>
<path class="st31" d="M33.6,69.5c-2.4,6.9-5,14.7-10.2,20.3c-8,8.8-18.8,9.5-18.6,11.6c0.2,1.9,9.7-0.8,17.2,4.8
	c6.9,5.1,11.4,16.6,13.3,23.8"/>
<path class="st31" d="M31.6,74c2.6-5.4,5.6-12.9,6-21.2c0.6-13-7.6-23.5-5.9-24.6c1.6-1.1,7.1,9.4,17.1,12.6
	c9.2,2.9,17.5-0.2,25.5-3.6"/>
<path class="st31" d="M115.2,159.2c5.5-2,14.2-4.7,21.8-4.3c11.9,0.6,19.1,8.9,20.6,7.4c1.4-1.4-6.6-7.2-6.9-16.4
	c-0.3-8.6,4.4-18,8-24.2"/>
<path class="st31" d="M115.5,37.7c6.2,1.5,13.5,2.4,21.8,1c12.9-2.2,21.3-12.4,22.8-11c1.4,1.4-7.7,8.9-8.6,19.4
	c-0.9,9.7,2,18.1,6,24.4"/>
<path class="st31" d="M31.9,121.4c3.3,4.9,6,15,7.3,22.4c2,11.7-4.6,20.6-2.9,21.7c1.6,1,5.6-8,14.6-10.3c8.3-2.1,17.8,1.2,24.4,4.2
	"/>
<g>
	<defs>
		<polygon id="SVGID_31_" points="53.7,49.6 183.7,88.9 150.1,186.4 20.1,147.1 		"/>
	</defs>
	<clipPath id="SVGID_32_">
		<use xlink:href="#SVGID_31_"  style="overflow:visible;"/>
	</clipPath>
	<g transform="matrix(1 2.980232e-08 -2.980232e-08 1 0 0)" style="clip-path:url(#SVGID_32_);">
		
			<use xlink:href="#Rosa"  width="112.4" height="99.6" x="-56.2" y="-49.8" transform="matrix(1.1569 0.3497 -0.338 0.9791 82.675 111.2139)" style="overflow:visible;"/>
	</g>
</g>
<text transform="matrix(1 0 0 1 14.16 154.9659)" class="st32 st33 st34">Flores del jardín</text>
</svg>
